<svg aria-hidden=true class="toggle__backdrop" xmlns="http://www.w3.org/2000/svg" fill="none" viewBox="0 0 290 228">
      <g>
        <g class="stars">
          <g>
            <path fill="#fff" fill-rule="evenodd" d="M61 11.5a.75.75 0 0 1 .721.544l.813 2.846a3.75 3.75 0 0 0 2.576 2.576l2.846.813a.75.75 0 0 1 0 1.442l-2.846.813a3.749 3.749 0 0 0-2.576 2.576l-.813 2.846a.75.75 0 0 1-1.442 0l-.813-2.846a3.749 3.749 0 0 0-2.576-2.576l-2.846-.813a.75.75 0 0 1 0-1.442l2.846-.813a3.749 3.749 0 0 0 2.576-2.576l.813-2.846A.75.75 0 0 1 61 11.5Z" clip-rule="evenodd" />
          </g>
          <g>
            <path fill="#fff" fill-rule="evenodd" d="M62.5 45.219a.329.329 0 0 1 .315.238l.356 1.245a1.641 1.641 0 0 0 1.127 1.127l1.245.356a.328.328 0 0 1 0 .63l-1.245.356a1.641 1.641 0 0 0-1.127 1.127l-.356 1.245a.328.328 0 0 1-.63 0l-.356-1.245a1.641 1.641 0 0 0-1.127-1.127l-1.245-.356a.328.328 0 0 1 0-.63l1.245-.356a1.641 1.641 0 0 0 1.127-1.127l.356-1.245a.328.328 0 0 1 .315-.238Z" clip-rule="evenodd" />
          </g>
          <g>
            <path fill="#fff" fill-rule="evenodd" d="M32 31.188a.28.28 0 0 1 .27.204l.305 1.067a1.405 1.405 0 0 0 .966.966l1.068.305a.28.28 0 0 1 0 .54l-1.068.305a1.405 1.405 0 0 0-.966.966l-.305 1.068a.28.28 0 0 1-.54 0l-.305-1.068a1.406 1.406 0 0 0-.966-.966l-1.067-.305a.28.28 0 0 1 0-.54l1.067-.305a1.406 1.406 0 0 0 .966-.966l.305-1.068a.281.281 0 0 1 .27-.203Z" clip-rule="evenodd" />
          </g>
          <g>
            <path fill="#fff" fill-rule="evenodd" d="M41.5 74.219a.329.329 0 0 1 .315.238l.356 1.245a1.641 1.641 0 0 0 1.127 1.127l1.245.356a.328.328 0 0 1 0 .63l-1.245.356a1.641 1.641 0 0 0-1.127 1.127l-.356 1.245a.328.328 0 0 1-.63 0l-.356-1.245a1.641 1.641 0 0 0-1.127-1.127l-1.245-.356a.328.328 0 0 1 0-.63l1.245-.356a1.641 1.641 0 0 0 1.127-1.127l.356-1.245a.328.328 0 0 1 .315-.238Z" clip-rule="evenodd" />
          </g>
          <g>
            <path fill="#fff" fill-rule="evenodd" d="M34 83.188a.28.28 0 0 1 .27.203l.305 1.068a1.405 1.405 0 0 0 .966.966l1.068.305a.28.28 0 0 1 0 .54l-1.068.305a1.405 1.405 0 0 0-.966.966l-.305 1.068a.28.28 0 0 1-.54 0l-.305-1.068a1.406 1.406 0 0 0-.966-.966l-1.068-.305a.28.28 0 0 1 0-.54l1.068-.305a1.406 1.406 0 0 0 .966-.966l.305-1.068a.281.281 0 0 1 .27-.204Z" clip-rule="evenodd" />
          </g>
          <g>
            <path fill="#fff" fill-rule="evenodd" d="M63 89.25a.375.375 0 0 1 .36.272l.407 1.423a1.874 1.874 0 0 0 1.288 1.288l1.423.406a.374.374 0 0 1 0 .722l-1.423.406a1.874 1.874 0 0 0-1.288 1.288l-.407 1.423a.374.374 0 0 1-.72 0l-.407-1.423a1.874 1.874 0 0 0-1.288-1.288l-1.423-.406a.374.374 0 0 1 0-.722l1.423-.406a1.874 1.874 0 0 0 1.288-1.288l.407-1.423a.376.376 0 0 1 .36-.272Z" clip-rule="evenodd" />
          </g>
          <g>
            <path fill="#fff" fill-rule="evenodd" d="M110.5 53.156a.236.236 0 0 1 .225.17l.254.89a1.174 1.174 0 0 0 .805.805l.89.254a.23.23 0 0 1 .122.084.233.233 0 0 1-.122.366l-.89.254a1.167 1.167 0 0 0-.805.805l-.254.89a.232.232 0 0 1-.225.17.235.235 0 0 1-.225-.17l-.254-.89a1.174 1.174 0 0 0-.805-.805l-.89-.254a.23.23 0 0 1-.122-.084.233.233 0 0 1 .122-.366l.89-.254a1.167 1.167 0 0 0 .805-.805l.254-.89a.232.232 0 0 1 .225-.17Z" clip-rule="evenodd" />
          </g>
          <g>
            <path fill="#fff" fill-rule="evenodd" d="M120 27.188a.279.279 0 0 1 .27.204l.305 1.067a1.41 1.41 0 0 0 .966.966l1.067.305a.283.283 0 0 1 .148.1.286.286 0 0 1 0 .34.283.283 0 0 1-.148.1l-1.067.305a1.403 1.403 0 0 0-.966.966l-.305 1.067a.279.279 0 0 1-.439.147.275.275 0 0 1-.101-.147l-.305-1.067a1.41 1.41 0 0 0-.966-.966l-1.068-.305a.284.284 0 0 1-.147-.1.286.286 0 0 1 0-.34.284.284 0 0 1 .147-.1l1.068-.305a1.405 1.405 0 0 0 .966-.966l.305-1.067a.279.279 0 0 1 .27-.204Z" clip-rule="evenodd" />
          </g>
          <g>
            <path fill="#fff" fill-rule="evenodd" d="M155 28.5a.753.753 0 0 1 .721.544l.813 2.846a3.746 3.746 0 0 0 2.576 2.576l2.846.813a.747.747 0 0 1 .543.721.75.75 0 0 1-.543.721l-2.846.813a3.75 3.75 0 0 0-2.576 2.576l-.813 2.846a.747.747 0 0 1-.721.543.749.749 0 0 1-.721-.543l-.813-2.846a3.746 3.746 0 0 0-2.576-2.576l-2.846-.813a.747.747 0 0 1-.543-.721.75.75 0 0 1 .543-.721l2.846-.813a3.75 3.75 0 0 0 2.576-2.576l.813-2.846A.751.751 0 0 1 155 28.5Z" clip-rule="evenodd" />
          </g>
          <g>
            <path fill="#fff" fill-rule="evenodd" d="M147 60.25a.377.377 0 0 1 .36.272l.407 1.423a1.883 1.883 0 0 0 1.288 1.288l1.423.407a.375.375 0 0 1 0 .72l-1.423.407a1.875 1.875 0 0 0-1.288 1.288l-.407 1.423a.371.371 0 0 1-.36.272.377.377 0 0 1-.36-.272l-.407-1.423a1.883 1.883 0 0 0-1.288-1.288l-1.423-.406a.375.375 0 0 1 0-.722l1.423-.406a1.875 1.875 0 0 0 1.288-1.288l.407-1.423a.372.372 0 0 1 .36-.272Z" clip-rule="evenodd" />
          </g>
          <g>
            <path fill="#fff" fill-rule="evenodd" d="M125.5 76.344a.513.513 0 0 1 .496.374l.559 1.956a2.574 2.574 0 0 0 1.771 1.771l1.956.56a.514.514 0 0 1 .27.805.514.514 0 0 1-.27.186l-1.956.559a2.57 2.57 0 0 0-1.771 1.77l-.559 1.957a.514.514 0 0 1-.806.27.514.514 0 0 1-.186-.27l-.559-1.956a2.574 2.574 0 0 0-1.771-1.771l-1.956-.56a.514.514 0 0 1-.27-.805.514.514 0 0 1 .27-.186l1.956-.559a2.57 2.57 0 0 0 1.771-1.77l.559-1.957a.515.515 0 0 1 .496-.374Z" clip-rule="evenodd" />
          </g>
        </g>
      </g>
    </svg>