<svg aria-hidden=true class="toggle__backdrop" xmlns="http://www.w3.org/2000/svg" fill="none" viewBox="0 0 290 228">
      <g class="clouds">
        <path fill="#fff" d="M328 167.5c0 15.214-7.994 28.56-20.01 36.068.007.31.01.621.01.932 0 23.472-19.028 42.5-42.5 42.5-3.789 0-7.461-.496-10.957-1.426C249.671 263.676 233.141 277 213.5 277a42.77 42.77 0 0 1-7.702-.696C198.089 284.141 187.362 289 175.5 289a42.338 42.338 0 0 1-27.864-10.408A42.411 42.411 0 0 1 133.5 281c-4.36 0-8.566-.656-12.526-1.876C113.252 287.066 102.452 292 90.5 292a42.388 42.388 0 0 1-15.8-3.034A42.316 42.316 0 0 1 48.5 298C25.028 298 6 278.972 6 255.5S25.028 213 48.5 213a42.388 42.388 0 0 1 15.8 3.034A42.316 42.316 0 0 1 90.5 207c4.36 0 8.566.656 12.526 1.876C110.748 200.934 121.548 196 133.5 196a42.338 42.338 0 0 1 27.864 10.408A42.411 42.411 0 0 1 175.5 204c2.63 0 5.204.239 7.702.696C190.911 196.859 201.638 192 213.5 192c3.789 0 7.461.496 10.957 1.426 2.824-10.491 9.562-19.377 18.553-24.994-.007-.31-.01-.621-.01-.932 0-23.472 19.028-42.5 42.5-42.5s42.5 19.028 42.5 42.5Z" />
      </g>
    </svg>